<svg width="16473" height="4182" viewBox="0 0 16473 4182" fill="none" xmlns="http://www.w3.org/2000/svg">
<path d="M6173.94 115.146C6288.48 114.472 6405.62 116.33 6456.96 116.397L7573.01 120.756V120.757C7763.75 121.913 8001.45 130.342 8191.62 121.962C8301.39 122.692 8414.37 124.39 8525.37 124.37C8526.77 380.316 8526.96 636.255 8525.74 892.184C8465.83 942.893 8424.17 988.325 8372.15 1049.47C8281.79 1155.6 8182.23 1252.08 8081.36 1351.29C7982.59 1448.41 7882.79 1547.93 7793.18 1658.96L7788.92 1664.25C7757.24 1703.77 7688.21 1767.1 7645.51 1805.77L7567.09 1876.8L7672.66 1884.01C7972.12 1904.47 8250.92 2043.93 8446.82 2271.24V2271.25C8488.57 2319.85 8508.98 2351.64 8544.79 2405.11L8544.8 2405.12L8544.8 2405.12C8560.15 2428.02 8585.06 2481.62 8612.77 2538.92C8625.97 2566.25 8639.5 2593.65 8651.82 2615.88C8657.97 2626.98 8664.2 2637.51 8670.29 2646.42C8673.21 2650.69 8676.83 2655.71 8681.08 2660.61C8692.99 2698.45 8702.58 2732.73 8712.53 2771.42C8711.45 2776.8 8710.71 2782.14 8710.14 2786.99C8708.9 2797.52 8708.11 2809.59 8707.6 2822.3C8706.58 2847.76 8706.63 2878.1 8707.13 2908.31C8707.64 2938.63 8708.61 2969.45 8709.49 2995.97C8710.39 3022.84 8711.17 3044.67 8711.36 3058.02V3058.02C8716.57 3421.79 8500.69 3784.66 8167.3 3933.47L8163.38 3935.21C8145.9 3942.88 8128.19 3951.35 8111.06 3959.49C8093.68 3967.75 8076.68 3975.78 8059.48 3983.19C8025.56 3997.8 7992.76 4009.14 7959.76 4013.88L7958.19 4014.09C7718.62 4046.89 7487.36 4043.73 7242.09 4045.8H7242.06L7242.04 4045.8C6917.5 4048.88 6592.94 4050.25 6268.38 4049.93H6268.36L5590.63 4049.58L5590.59 4049.58L5590.55 4049.58C5487.38 4049.69 5318.86 4055.27 5229.64 4048.19L5228.47 4048.1L5227.3 4048.07L5220.08 4047.88C5068.36 4043.98 4909.88 4047 4752.3 4050C4591.81 4053.05 4432.24 4056.1 4279.42 4052.06H4279.42C4218.41 4050.45 4150.56 4052.2 4085.64 4052.95C4032.12 4053.57 3980.19 4053.53 3932.75 4050.7C3914.64 3984.03 3875.45 3873.94 3835.64 3766.27C3786.23 3632.64 3736.37 3504.12 3712.49 3439.1L3192.44 2021.58C3181.32 1990.83 3149.25 1890.81 3118.8 1796.02C3103.67 1748.92 3089.04 1703.46 3077.88 1669.43C3072.32 1652.44 3067.54 1638.09 3063.98 1627.74C3062.21 1622.61 3060.63 1618.15 3059.33 1614.72C3058.71 1613.06 3057.98 1611.18 3057.22 1609.41C3056.85 1608.57 3056.26 1607.22 3055.48 1605.71C3055.41 1605.57 3052.95 1600.43 3048.37 1595.41L3015.8 1559.74L2982.52 1594.75C2978.15 1599.36 2975.66 1603.93 2974.95 1605.24C2973.84 1607.29 2972.97 1609.19 2972.37 1610.58C2971.14 1613.4 2970 1616.45 2968.99 1619.32C2966.92 1625.17 2964.48 1632.8 2961.76 1641.76C2956.29 1659.82 2949.07 1685.21 2940.42 1716.7C2923.09 1779.79 2899.62 1868.63 2872.01 1975.06C2816.78 2187.99 2744.8 2472.06 2671.76 2763.08C2536.47 3302.17 2397.37 3865.93 2354.39 4046C2028.81 4040.91 1687.97 4045.4 1362.38 4046.48C1314.24 3915.15 1271.53 3779.09 1228.93 3641.7C1183.99 3496.78 1139.13 3350.24 1088.58 3208.34L1086.17 3201.58C958.254 2844.17 853.968 2485.93 730.646 2123.98L730.585 2123.81L713.897 2075.44C547.152 1591.76 384.259 1106.76 225.22 620.486L209.328 571.855C185.384 497.259 152.03 404.979 120.952 315.901C97.8692 249.74 76.0371 185.327 59.4326 129.417C367.368 134.417 686.543 130.787 993.499 130.593C1038.82 247.808 1083.67 393.693 1124.27 515.704L1128.51 528.387L1407.45 1367.74L1407.51 1367.92L1407.58 1368.11C1497.26 1630.34 1584.63 1893.35 1669.68 2157.11L1669.74 2157.31L1669.81 2157.51C1729.37 2336.55 1790.51 2501.17 1834.83 2680.75L1923.34 2673.94C1930.34 2594.97 1926.64 2563.56 1947.45 2494.55C1985.22 2369.34 2018.91 2242.21 2050.94 2116.18L2317.51 1084.05L2318.04 1082.02L2318.37 1079.94C2325.47 1035.72 2360.62 912.37 2374.95 856.569L2374.95 856.57L2497.07 383.503C2509.17 342.01 2522.22 283.89 2535.39 232.399C2545.79 191.743 2556.36 154.694 2567.38 126.054C2692.32 132.003 2830.75 130.23 2953.14 130.655L2965.92 130.709C3076.87 131.25 3230.41 135.063 3343.12 125.994C3358.85 126.832 3371.6 126.736 3387.83 128.324C3392.67 128.798 3396.86 129.362 3400.41 130L4017.53 1894.41L4017.56 1894.48L4017.58 1894.55C4100.98 2130.47 4236.09 2464.82 4301.76 2684.73L4389.54 2677.41C4412.33 2494.28 4493.48 2214.22 4541.07 2025.46L4541.11 2025.31L4541.15 2025.15C4606.18 1759.29 4668.81 1492.84 4729.02 1225.84L4907.81 455.768L4907.82 455.759L4907.82 455.751C4915.19 423.935 4932.87 342.397 4949.17 271.561C4962.18 215.07 4974.97 162.426 4984.57 129.183C4991.86 128.938 5000.24 128.728 5009.51 128.553C5037.52 128.025 5072.68 127.826 5108.6 127.824C5180.44 127.821 5254.31 128.607 5277.91 129.071H5277.91C5381.8 131.104 5491.77 128.604 5599.82 126.871C5708.37 125.13 5815.24 124.156 5915.07 129.026L5923.08 129.417L5930.73 127.017C5934.09 125.963 5943.07 124.212 5959.42 122.514C5974.83 120.911 5994.22 119.596 6016.69 118.545C6061.57 116.445 6116.95 115.481 6173.94 115.146Z" fill="#FEFEFE" stroke="black" stroke-width="90"/>
<path d="M6174.13 115.146C6288.67 114.472 6405.79 116.331 6457.13 116.398V116.397L7573.1 120.756V120.757C7763.83 121.913 8001.51 130.342 8191.66 121.962C8301.42 122.692 8414.39 124.39 8525.38 124.37C8526.78 380.316 8526.98 636.256 8525.76 892.186C8465.85 942.895 8424.19 988.326 8372.17 1049.47C8281.82 1155.6 8182.27 1252.09 8081.4 1351.29C7981.08 1449.95 7879.69 1551.09 7788.99 1664.25C7757.31 1703.77 7688.28 1767.1 7645.59 1805.77L7567.18 1876.8L7672.74 1884.01C7971.03 1904.39 8248.81 2042.86 8444.58 2268.64L8446.88 2271.3C8488.6 2319.87 8509.01 2351.66 8544.81 2405.11L8544.81 2405.11L8544.81 2405.12C8560.16 2428.02 8585.07 2481.61 8612.77 2538.92C8625.98 2566.24 8639.51 2593.65 8651.82 2615.88C8657.97 2626.98 8664.21 2637.51 8670.29 2646.41C8673.21 2650.69 8676.83 2655.71 8681.08 2660.61C8693 2698.45 8702.58 2732.73 8712.53 2771.42C8711.45 2776.8 8710.71 2782.14 8710.14 2786.99C8708.9 2797.52 8708.11 2809.59 8707.6 2822.3C8706.59 2847.76 8706.63 2878.1 8707.13 2908.31C8707.64 2938.63 8708.61 2969.45 8709.49 2995.97C8710.39 3022.84 8711.17 3044.67 8711.36 3058.02V3058.02C8716.56 3421.79 8500.71 3784.66 8167.34 3933.47L8163.42 3935.21C8145.94 3942.88 8128.23 3951.35 8111.11 3959.49C8093.72 3967.75 8076.73 3975.78 8059.53 3983.19C8025.61 3997.8 7992.81 4009.14 7959.82 4013.88L7958.25 4014.09C7718.7 4046.89 7487.45 4043.73 7242.2 4045.8H7242.17L7242.15 4045.8C6917.64 4048.88 6593.1 4050.25 6268.57 4049.93H6268.55L5590.87 4049.58L5590.83 4049.58L5590.79 4049.58C5487.63 4049.69 5319.12 4055.27 5229.91 4048.19L5228.74 4048.1L5227.57 4048.07L5220.35 4047.88C5145.48 4045.96 5068.96 4045.72 4991.72 4046.33C5086.49 3661.21 5173.66 3258.54 5261.99 2874.22L5261.99 2874.22C5406.54 2245.09 5558.08 1617.59 5716.58 991.835C5798.63 742.393 5888.19 385.208 5954.06 123.125C5955.81 122.921 5957.67 122.717 5959.62 122.514C5975.04 120.911 5994.43 119.596 6016.89 118.545C6061.77 116.445 6117.14 115.481 6174.13 115.146Z" fill="#057750"/>
<path d="M6174.13 115.146C6288.67 114.472 6405.79 116.331 6457.13 116.398V116.397L7573.1 120.756V120.757C7763.83 121.913 8001.51 130.342 8191.66 121.962C8301.42 122.692 8414.39 124.39 8525.38 124.37C8526.78 380.316 8526.98 636.256 8525.76 892.186C8465.85 942.895 8424.19 988.326 8372.17 1049.47C8281.82 1155.6 8182.27 1252.09 8081.4 1351.29C7981.08 1449.95 7879.69 1551.09 7788.99 1664.25C7757.31 1703.77 7688.28 1767.1 7645.59 1805.77L7567.18 1876.8L7672.74 1884.01C7971.03 1904.39 8248.81 2042.86 8444.58 2268.64L8446.88 2271.3C8488.6 2319.87 8509.01 2351.66 8544.81 2405.11L8544.81 2405.11L8544.81 2405.12C8560.16 2428.02 8585.07 2481.61 8612.77 2538.92C8625.98 2566.24 8639.51 2593.65 8651.82 2615.88C8657.97 2626.98 8664.21 2637.51 8670.29 2646.41C8673.21 2650.69 8676.83 2655.71 8681.08 2660.61C8693 2698.45 8702.58 2732.73 8712.53 2771.42C8711.45 2776.8 8710.71 2782.14 8710.14 2786.99C8708.9 2797.52 8708.11 2809.59 8707.6 2822.3C8706.59 2847.76 8706.63 2878.1 8707.13 2908.31C8707.64 2938.63 8708.61 2969.45 8709.49 2995.97C8710.39 3022.84 8711.17 3044.67 8711.36 3058.02V3058.02C8716.56 3421.79 8500.71 3784.66 8167.34 3933.47L8163.42 3935.21C8145.94 3942.88 8128.23 3951.35 8111.11 3959.49C8093.72 3967.75 8076.73 3975.78 8059.53 3983.19C8025.61 3997.8 7992.81 4009.14 7959.82 4013.88L7958.25 4014.09C7718.7 4046.89 7487.45 4043.73 7242.2 4045.8H7242.17L7242.15 4045.8C6917.64 4048.88 6593.1 4050.25 6268.57 4049.93H6268.55L5590.87 4049.58L5590.83 4049.58L5590.79 4049.58C5487.63 4049.69 5319.12 4055.27 5229.91 4048.19L5228.74 4048.1L5227.57 4048.07L5220.35 4047.88C5145.48 4045.96 5068.96 4045.72 4991.72 4046.33C5086.49 3661.21 5173.66 3258.54 5261.99 2874.22L5261.99 2874.22C5406.54 2245.09 5558.08 1617.59 5716.58 991.835C5798.63 742.393 5888.19 385.208 5954.06 123.125C5955.81 122.921 5957.67 122.717 5959.62 122.514C5975.04 120.911 5994.43 119.596 6016.89 118.545C6061.77 116.445 6117.14 115.481 6174.13 115.146Z" fill="url(#paint0_linear_75_3)" fill-opacity="0.2"/>
<path d="M6174.13 115.146C6288.67 114.472 6405.79 116.331 6457.13 116.398V116.397L7573.1 120.756V120.757C7763.83 121.913 8001.51 130.342 8191.66 121.962C8301.42 122.692 8414.39 124.39 8525.38 124.37C8526.78 380.316 8526.98 636.256 8525.76 892.186C8465.85 942.895 8424.19 988.326 8372.17 1049.47C8281.82 1155.6 8182.27 1252.09 8081.4 1351.29C7981.08 1449.95 7879.69 1551.09 7788.99 1664.25C7757.31 1703.77 7688.28 1767.1 7645.59 1805.77L7567.18 1876.8L7672.74 1884.01C7971.03 1904.39 8248.81 2042.86 8444.58 2268.64L8446.88 2271.3C8488.6 2319.87 8509.01 2351.66 8544.81 2405.11L8544.81 2405.11L8544.81 2405.12C8560.16 2428.02 8585.07 2481.61 8612.77 2538.92C8625.98 2566.24 8639.51 2593.65 8651.82 2615.88C8657.97 2626.98 8664.21 2637.51 8670.29 2646.41C8673.21 2650.69 8676.83 2655.71 8681.08 2660.61C8693 2698.45 8702.58 2732.73 8712.53 2771.42C8711.45 2776.8 8710.71 2782.14 8710.14 2786.99C8708.9 2797.52 8708.11 2809.59 8707.6 2822.3C8706.59 2847.76 8706.63 2878.1 8707.13 2908.31C8707.64 2938.63 8708.61 2969.45 8709.49 2995.97C8710.39 3022.84 8711.17 3044.67 8711.36 3058.02V3058.02C8716.56 3421.79 8500.71 3784.66 8167.34 3933.47L8163.42 3935.21C8145.94 3942.88 8128.23 3951.35 8111.11 3959.49C8093.72 3967.75 8076.73 3975.78 8059.53 3983.19C8025.61 3997.8 7992.81 4009.14 7959.82 4013.88L7958.25 4014.09C7718.7 4046.89 7487.45 4043.73 7242.2 4045.8H7242.17L7242.15 4045.8C6917.64 4048.88 6593.1 4050.25 6268.57 4049.93H6268.55L5590.87 4049.58L5590.83 4049.58L5590.79 4049.58C5487.63 4049.69 5319.12 4055.27 5229.91 4048.19L5228.74 4048.1L5227.57 4048.07L5220.35 4047.88C5145.48 4045.96 5068.96 4045.72 4991.72 4046.33C5086.49 3661.21 5173.66 3258.54 5261.99 2874.22L5261.99 2874.22C5406.54 2245.09 5558.08 1617.59 5716.58 991.835C5798.63 742.393 5888.19 385.208 5954.06 123.125C5955.81 122.921 5957.67 122.717 5959.62 122.514C5975.04 120.911 5994.43 119.596 6016.89 118.545C6061.77 116.445 6117.14 115.481 6174.13 115.146Z" stroke="black" stroke-width="90"/>
<path d="M5708.46 1022.99C6165.75 1009.78 6690.39 1018.67 7159.25 1022.38C7041.61 1163.19 6923 1303.2 6803.43 1442.38L6803.4 1442.41L6803.37 1442.45C6728.81 1529.59 6601.9 1670.67 6538.85 1769.74L6532.55 1779.63L6531.88 1791.35C6529.12 1840.04 6525.12 2005.91 6526.53 2160.57C6527.23 2237.89 6529.29 2313.46 6533.65 2370.64C6535.81 2398.99 6538.65 2424.34 6542.52 2443.57C6544.41 2452.92 6546.96 2463.04 6550.78 2471.92C6552.68 2476.34 6555.68 2482.33 6560.41 2488.12C6565 2493.73 6573.99 2502.49 6588.33 2505.87L6588.65 2505.94L6588.97 2506.01C6680.71 2526.24 6775.95 2530.66 6869.63 2530.98C6965.53 2531.3 7055.38 2527.49 7147.25 2530.24C7327.7 2535.63 7490.2 2566.56 7622.21 2697.55C7759.81 2834.11 7760.28 3071.13 7625.47 3184.71L7623.88 3186.04C7422.74 3352.73 7152.78 3371.85 6879.91 3307.37C6609.52 3243.48 6344.31 3099.01 6159.46 2949.18L6155.11 2945.64C6134.2 2928.57 6095.53 2898.3 6054.9 2875.01C6034.68 2863.42 6012.14 2852.49 5989.84 2846.2C5968.67 2840.23 5940.22 2836.31 5913.6 2848.68L5906.25 2852.09L5900.55 2857.86C5886.71 2871.86 5875.33 2893.03 5865.94 2913.43C5855.87 2935.32 5845.56 2962.1 5835.28 2991.69C5814.7 3050.94 5793.2 3124.43 5773.04 3198.77C5732.68 3347.61 5696.84 3502.89 5683.33 3560.74L5677.79 3584.46L5694.61 3602.06C5801.95 3714.41 5989.88 3826.52 6183.19 3918.22C6282.55 3965.36 6384.94 4007.85 6481.03 4042.79C6413.94 4042.89 6349.94 4042.04 6303.68 4041.98H6303.69L5558.03 4040.4H5557.99C5527.01 4040.36 5455.47 4039.67 5386.21 4040.3C5351.51 4040.62 5316.91 4041.26 5287.73 4042.5C5262.96 4043.56 5239.16 4045.13 5222.63 4047.94C5147 4045.96 5069.68 4045.71 4991.62 4046.33C5086.38 3661.18 5173.54 3258.47 5261.86 2874.12L5261.87 2874.12C5403.98 2255.46 5552.85 1638.39 5708.46 1022.99Z" fill="url(#paint1_linear_75_3)" stroke="black" stroke-width="90"/>
<path d="M10508.1 70.4521C10752.3 53.8508 10899.9 53.6019 11148.4 71.1924C11691 119.551 12271.2 356.259 12622.7 776.345L12622.7 776.347C12913.3 1123.66 13031.5 1480.6 13088.7 1926.96C13092.1 2035.42 13098.5 2148.3 13095 2252.25C13064.4 2913.13 12806.1 3396.82 12402 3708.44C11996.8 4020.91 11440.1 4164.07 10807.2 4132.79C10330.7 4109.24 9911.31 3992.06 9570.58 3768.3C9230.81 3545.17 8966.6 3214.36 8802.01 2758.35C8790.12 2711.57 8778.84 2671.01 8764.01 2624.59C8735.45 2504.85 8713.96 2383.54 8699.7 2261.29L8699.64 2260.83L8699.58 2260.37L8698.7 2253.88C8662.18 1979.15 8703.31 1691.67 8767.21 1418.91C9000.68 587.265 9668.45 158.814 10508.1 70.4521ZM11075.1 856.431C10950.8 838.273 10824.5 839.033 10700.4 858.679H10700.4C10057.3 960.52 9601.34 1540.66 9654.35 2189.54C9707.36 2838.43 10251.5 3336.85 10902.7 3332.94C11553.8 3329.03 12091.9 2824.12 12137.1 2174.64C12182.4 1525.16 11719.4 950.542 11075.1 856.431H11075.1Z" fill="#FEFEFE" stroke="black" stroke-width="90"/>
<path d="M14355.2 56.21C14482.8 49.0391 14606 43.9771 14732.8 45.1758H14732.8C14778.8 45.6068 14826.5 48.673 14875.3 51.874C14923 55.0058 14972 58.2747 15019.3 58.9082C15333.5 85.7351 15764.4 192.49 16063.6 308.665C16005.1 564.327 15943.3 819.214 15878.2 1073.26C15764.2 1029.42 15629.8 974.528 15511.7 940.402L15511.7 940.401C15139.4 832.844 14670.1 745.923 14281.2 893.307L14281.2 893.31L14281.2 893.312C14245.5 906.842 14207 932.866 14174.9 962.018C14143.2 990.825 14112.7 1027.35 14098.1 1064.78L14098.1 1064.78C14085.1 1098.39 14081.1 1139.77 14083 1178.01C14084.9 1216.45 14093 1257.05 14108.1 1289.52L14108.3 1289.94L14108.5 1290.35C14141 1356.58 14202.5 1406.16 14265.4 1442.79C14327 1478.73 14394.8 1505.01 14450.4 1523.32L14455.8 1525.06C14695 1602.73 14949 1650.58 15187.5 1710.07H15187.5C15721.5 1843.24 16268.3 2086.79 16395 2655.13C16444.1 2905.94 16438.2 3092.82 16377 3341.39C16247.3 3716.02 15946 3947.25 15564.9 4038.6L15564.9 4038.6C14720.5 4240.99 13822.2 4076.36 13067.3 3664.11C13099.7 3560.75 13154 3424.37 13190.7 3325.21L13190.7 3325.21C13245.3 3178.01 13300.9 3019.16 13359.4 2874.07C13516.9 2951.28 13699.1 3042.77 13885.7 3119.3C14088.2 3202.36 14299.9 3269.59 14495.8 3281.92C14563.3 3295.77 14674.6 3306.81 14784 3309.99C14890.2 3313.08 15002.5 3309.07 15073 3289.74C15083.5 3289.45 15094.8 3287.75 15104.4 3286.02C15118.2 3283.54 15133.6 3280.02 15148.4 3276.26C15177.9 3268.8 15208 3259.72 15223.2 3254.27L15223.2 3254.27C15312.8 3222.28 15389.1 3168.41 15434.3 3094.53C15480.4 3019.32 15491.3 2927.73 15456.6 2828.39L15456.3 2827.71L15456.1 2827.03C15426.3 2750.07 15366.3 2694.82 15301.8 2654.21C15237.3 2613.62 15164.5 2585.2 15103.4 2563.59C14825.4 2461.08 14517.1 2409.96 14231.8 2335.44C13942.8 2259.96 13669 2159.15 13439.1 1956.77L13438.8 1956.57L13438.6 1956.37L13436.4 1954.51C13345.7 1875.77 13268.3 1742.17 13214.1 1626.48C13070.6 1166.53 13134.4 799.002 13339 535.475C13545 270.167 13900.3 101.903 14355.2 56.21Z" fill="#FEFEFE" stroke="black" stroke-width="90"/>
<defs>
<linearGradient id="paint0_linear_75_3" x1="6328" y1="70" x2="6328" y2="4099" gradientUnits="userSpaceOnUse">
<stop offset="0.129808" stop-color="#0AB77F"/>
<stop offset="0.235577" stop-color="#75CA79"/>
</linearGradient>
<linearGradient id="paint1_linear_75_3" x1="5834" y1="971" x2="5834" y2="4099" gradientUnits="userSpaceOnUse">
<stop offset="0.9999" stop-color="#2CBD6F"/>
<stop offset="1" stop-color="#145733"/>
</linearGradient>
</defs>
</svg>
