<svg xmlns="http://www.w3.org/2000/svg" viewBox="0 0 120 120" width="120" height="120">
  <defs>
    <linearGradient id="oc-grad" x1="0" y1="0" x2="120" y2="120" gradientUnits="userSpaceOnUse">
      <stop offset="0" stop-color="#ff4d4d"/>
      <stop offset="1" stop-color="#991b1b"/>
    </linearGradient>
  </defs>
  <!-- Body -->
  <path d="M60,10 C30,10 15,35 15,55 C15,75 30,95 45,100 L45,110 L55,110 L55,100 C55,100 60,102 65,100 L65,110 L75,110 L75,100 C90,95 105,75 105,55 C105,35 90,10 60,10Z" fill="url(#oc-grad)"/>
  <!-- Left claw -->
  <path d="M20,45 C5,40 0,50 5,60 C10,70 20,65 25,55 C28,48 25,45 20,45Z" fill="url(#oc-grad)"/>
  <!-- Right claw -->
  <path d="M100,45 C115,40 120,50 115,60 C110,70 100,65 95,55 C92,48 95,45 100,45Z" fill="url(#oc-grad)"/>
  <!-- Left antenna -->
  <path d="M45,15 Q35,5 30,8" fill="none" stroke="#ff4d4d" stroke-width="3" stroke-linecap="round"/>
  <!-- Right antenna -->
  <path d="M75,15 Q85,5 90,8" fill="none" stroke="#ff4d4d" stroke-width="3" stroke-linecap="round"/>
  <!-- Left eye outer -->
  <circle cx="45" cy="35" r="6" fill="#050810"/>
  <!-- Right eye outer -->
  <circle cx="75" cy="35" r="6" fill="#050810"/>
  <!-- Left eye inner -->
  <circle cx="46" cy="34" r="2.5" fill="#00e5cc"/>
  <!-- Right eye inner -->
  <circle cx="76" cy="34" r="2.5" fill="#00e5cc"/>
</svg>
