<?xml version="1.0" encoding="UTF-8"?>
<svg id="Layer_1" data-name="Layer 1" xmlns="http://www.w3.org/2000/svg" viewBox="0 0 1024 1024">
  <defs>
    <style>
      .cls-1 {
        fill: #fff;
      }

      .cls-1, .cls-2 {
        stroke-width: 0px;
      }

      .cls-2 {
        fill: #512fc9;
      }
    </style>
  </defs>
  <rect class="cls-2" width="1024" height="1024"/>
  <g>
    <path class="cls-1" d="M511.9693,294.73352c.00577,0,.01038.00116.01614.00116.00574,0,.01035-.00116.01608-.00116h-.03223Z"/>
    <g>
      <path class="cls-1" d="M864.68134,616.88806l-72.41217-61.65741,1.34045-8.36633c1.51666-11.31091,2.01184-23.11591,2.01184-34.77692,0-14.48935-.75769-29.38519-3.35229-43.14444l72.41217-61.5676,1.60303-1.34158c1.92426-1.89438,3.23596-4.37146,3.73114-7.02472.52509-2.68323.17505-5.45163-.9328-7.92987-14.77954-44.60117-40.28729-87.04541-71.65326-122.2323-4.43127-5.04169-10.6994-6.87961-16.58746-4.31387l-91.2384,31.1333-7.57977-5.85931c-20.77356-15.44974-43.56128-27.98367-67.7298-37.2563l-18.0719-92.75847-.52399-1.9243c-.90051-2.62334-2.49548-4.92651-4.61786-6.70457-2.12238-1.77921-4.68817-2.94463-7.41852-3.35228l-.03229-.02995c-47.28668-9.4442-95.97256-9.4442-143.2558,0-3.07013.4664-5.91803,1.86673-8.16595,3.99489-2.24789,2.15578-3.78067,4.9265-4.39908,7.98628l-18.06848,92.76079-8.19931,3.26476c-24.22491,9.91174-46.85025,23.32089-67.14246,39.8497l-91.21417-31.16324-2.01184-.64029c-2.66478-.64142-5.45395-.4975-8.04617.37888-2.59454.90399-4.877,2.50702-6.58826,4.634-31.40738,35.18692-56.87138,77.63113-71.63019,122.23233-1.26559,2.79837-1.51665,5.94797-.70824,8.92139.80727,2.97342,2.61987,5.59558,5.13266,7.37479l72.40407,61.59641-1.36119,8.3663c-1.51665,11.31094-1.98305,23.17694-1.98305,34.7493-.20038,14.45941.91553,28.88995,3.34422,43.14325l-72.37184,61.65741-1.60876,1.31049c-1.93584,1.92316-3.24174,4.37378-3.74614,7.05469-.50095,2.68201-.17734,5.4516.9305,7.92871,14.7588,44.6311,40.22281,87.01892,71.62787,122.14478,4.45667,5.07275,10.7363,6.90839,16.61633,4.37378l91.21417-31.19318,6.65277,5.36523c20.96817,15.79987,44.10367,28.53876,68.689,37.77911l18.06848,92.81836.49634,1.92316c.90631,2.59454,2.50931,4.92767,4.63748,6.70685,2.12469,1.77692,4.69388,2.91357,7.43121,3.35229,23.63873,4.3139,47.27747,6.84967,71.65665,6.84967,24.35272,0,47.99261-2.53577,71.63141-6.84967,3.06317-.49744,5.90875-1.89551,8.15326-4.02362,2.24438-2.15808,3.78406-4.92657,4.4071-7.95868l18.10077-92.81836,9.03418-3.64478c23.88635-10.08563,46.2572-23.37848,66.27881-39.49957l91.20612,31.19318,1.98181.67023c5.30542,1.42908,10.66956-.52515,14.63452-5.04401,31.42462-35.12585,56.87366-77.51367,71.62439-122.14478,1.2829-2.7984,1.51666-5.97449.72894-8.9502-.81525-2.97229-2.62323-5.56683-5.13025-7.34369ZM512.00153,729.29382c-120.23886,0-217.70389-97.27734-217.70389-217.2652,0-119.98093,97.39594-217.28473,217.68781-217.29395-.00577,0-.01038-.00116-.01614-.00116h.03223c-.00574,0-.01035.00116-.01608.00116,120.26193.00922,217.72464,97.31302,217.72464,217.29395,0,119.98785-97.47076,217.2652-217.70856,217.2652Z"/>
      <path class="cls-1" d="M511.99811,363.49973c-82.0141.00574-148.74313,66.63226-148.74313,148.52084s66.72903,148.50934,148.74887,148.50934,148.74774-66.62073,148.74774-148.50934-66.73358-148.51511-148.75348-148.52084ZM512.00385,599.29169c-48.25516,0-87.51065-39.14722-87.51065-87.27112,0-48.12964,39.24973-87.28262,87.49225-87.28262,48.26096,0,87.52792,39.15298,87.52792,87.28262,0,48.1239-39.25433,87.27112-87.50952,87.27112Z"/>
    </g>
  </g>
</svg>